<svg id="Layer_1" data-name="Layer 1" xmlns="http://www.w3.org/2000/svg" viewBox="0 0 250.95 255.82"><title>kuncie</title><path d="M225.74,343.41c-27.44-6.58-49.37-21.27-64.69-45-19.18-29.75-19.39-60.84-5.85-92.86C166.42,179,186,161.47,212.34,150.83c1.84-.74,3.6-1.68,5.4-2.52,8-4.33,16.55-6.81,25.79-6.27.91,2.85-1.67,3.23-3.15,4.05-9.24,5.1-18,10.89-25.32,18.5-21.3,22-33.18,48.23-35,79-1.37,22.68,3.77,43.25,18.23,61.07,10.95,13.48,25.26,21.87,41.58,27.3,17.14,5.7,34.72,5.61,52.4,4.58,2.05-.12,4.31-1.19,5.74,1.35-.8,1.92-2.59,2.49-4.31,3.12-19.53,7.16-39.61,8.34-60.05,5.4A22.19,22.19,0,0,1,225.74,343.41Z" transform="translate(-145.75 -111.37)" fill="#ef7a5a"/><path d="M243.83,142.53c-7.18.4-14,2.49-20.84,4.47-1.74.5-3.5.87-5.25,1.31,39.89-43.63,99.63-47.27,138.83-18,21.47,16,32.46,38.53,38.21,64.1,3.78,16.78,1.65,33-3.49,49.1-.6,1.89-1.12,3.81-1.68,5.71-1.23,8.34-5.87,15.21-9.78,22.38-.64,1.15-1.57,2.71-3.44,1.42,0-6.54,2.53-12.61,3.43-19,4.5-31.91-4.45-59.36-26.55-82.73C335,152,312.59,141.13,286.35,138.16a80.5,80.5,0,0,0-35,3.62C249,142.59,246.54,144.34,243.83,142.53Z" transform="translate(-145.75 -111.37)" fill="#1aa193"/><path d="M376.79,273.71c5.76-7.38,8.7-16.23,12.82-24.47,8.05,31.86.93,60.12-20.26,85-6.45,7.58-12.68,15.33-21.47,20.57-16.59,9.89-34.74,13.12-53.62,12.22-19.43-.92-38.11-5.41-55.38-14.74a60.92,60.92,0,0,1-13.14-8.9c22.94,4.88,45.56,4.2,67.76-3.85,1.55-.57,3.21-.87,4.38-2.17,1-1.88,2.92-2,4.69-2.4,17.86-4,34-11.41,47.72-23.71a92.55,92.55,0,0,0,19.52-25.68C372,281.55,373,276.83,376.79,273.71Z" transform="translate(-145.75 -111.37)" fill="#f4c477"/><path d="M376.79,273.71c-9.27,23.26-24.26,41.44-46.83,53-10.17,5.2-21.06,8.13-32.09,10.68-10.6,1.11-21.24,1.84-31.86.87-32.32-2.92-59.75-14.93-76.59-44.26-13.62-23.71-13.91-49.26-6.89-74.93,9.22-33.66,28.52-59.67,60.21-75.64a5.73,5.73,0,0,0,1.09-.9c12.56-3.94,25.23-6.92,38.61-6.11,48.07,2.91,92.1,39.62,99.16,89.13C383.94,242,381.31,257.94,376.79,273.71Z" transform="translate(-145.75 -111.37)" fill="#2c1a32"/></svg>